M48
; DRILL file {KiCad (5.1.10)-1} date 04/03/22 22:30:38
; FORMAT={3:3/ absolute / metric / suppress leading zeros}
; #@! TF.CreationDate,2022-04-03T22:30:38-03:00
; #@! TF.GenerationSoftware,Kicad,Pcbnew,(5.1.10)-1
; #@! TF.FileFunction,Plated,1,2,PTH
FMAT,2
METRIC,TZ
T1C0.762
T2C1.000
%
G90
G05
T1
X120650Y-71120
X120650Y-73660
X120650Y-76200
X120650Y-78740
X120650Y-81280
X120650Y-83820
X120650Y-86360
X120650Y-88900
X120650Y-91440
X120650Y-93980
X120650Y-96520
X120650Y-99060
X120650Y-101600
X120650Y-104140
X120650Y-106680
X146050Y-71120
X146050Y-73660
X146050Y-76200
X146050Y-78740
X146050Y-81280
X146050Y-83820
X146050Y-86360
X146050Y-88900
X146050Y-91440
X146050Y-93980
X146050Y-96520
X146050Y-99060
X146050Y-101600
X146050Y-104140
X146050Y-106680
X152400Y-113538
X152400Y-126746
X170942Y-113538
X170942Y-126746
T2
X121960Y-121920
X124460Y-121920
X161290Y-67310
X161290Y-69850
X163830Y-67310
X163830Y-69850
X166370Y-67310
X166370Y-69850
X168910Y-67310
X168910Y-69850
T0
M30
