%TF.GenerationSoftware,KiCad,Pcbnew,(5.1.10)-1*%
%TF.CreationDate,2022-04-03T22:30:19-03:00*%
%TF.ProjectId,ESP32_nFR24L01,45535033-325f-46e4-9652-32344c30312e,rev?*%
%TF.SameCoordinates,Original*%
%TF.FileFunction,Soldermask,Bot*%
%TF.FilePolarity,Negative*%
%FSLAX46Y46*%
G04 Gerber Fmt 4.6, Leading zero omitted, Abs format (unit mm)*
G04 Created by KiCad (PCBNEW (5.1.10)-1) date 2022-04-03 22:30:19*
%MOMM*%
%LPD*%
G01*
G04 APERTURE LIST*
%ADD10O,1.700000X2.000000*%
%ADD11C,1.524000*%
%ADD12C,1.700000*%
%ADD13R,1.524000X1.524000*%
G04 APERTURE END LIST*
D10*
%TO.C,J1*%
X121960000Y-121920000D03*
G36*
G01*
X125310000Y-121170000D02*
X125310000Y-122670000D01*
G75*
G02*
X125060000Y-122920000I-250000J0D01*
G01*
X123860000Y-122920000D01*
G75*
G02*
X123610000Y-122670000I0J250000D01*
G01*
X123610000Y-121170000D01*
G75*
G02*
X123860000Y-120920000I250000J0D01*
G01*
X125060000Y-120920000D01*
G75*
G02*
X125310000Y-121170000I0J-250000D01*
G01*
G37*
%TD*%
D11*
%TO.C,U3*%
X152400000Y-126746000D03*
X170942000Y-126746000D03*
X152400000Y-113538000D03*
X170942000Y-113538000D03*
%TD*%
D12*
%TO.C,U2*%
X161290000Y-69850000D03*
X161290000Y-67310000D03*
X163830000Y-69850000D03*
X163830000Y-67310000D03*
X166370000Y-69850000D03*
X166370000Y-67310000D03*
X168910000Y-69850000D03*
D13*
X168910000Y-67310000D03*
%TD*%
%TO.C,U1*%
X120650000Y-71120000D03*
D11*
X120650000Y-73660000D03*
X120650000Y-76200000D03*
X120650000Y-78740000D03*
X120650000Y-81280000D03*
X120650000Y-83820000D03*
X120650000Y-86360000D03*
X120650000Y-88900000D03*
X120650000Y-91440000D03*
X120650000Y-93980000D03*
X120650000Y-96520000D03*
X120650000Y-99060000D03*
X120650000Y-101600000D03*
X120650000Y-104140000D03*
X120650000Y-106680000D03*
X146050000Y-106680000D03*
X146050000Y-104140000D03*
X146050000Y-101600000D03*
X146050000Y-99060000D03*
X146050000Y-96520000D03*
X146050000Y-93980000D03*
X146050000Y-91440000D03*
X146050000Y-88900000D03*
X146050000Y-86360000D03*
X146050000Y-83820000D03*
X146050000Y-81280000D03*
X146050000Y-78740000D03*
X146050000Y-76200000D03*
X146050000Y-73660000D03*
X146050000Y-71120000D03*
%TD*%
M02*
