%TF.GenerationSoftware,KiCad,Pcbnew,(5.1.10)-1*%
%TF.CreationDate,2022-04-03T22:30:19-03:00*%
%TF.ProjectId,ESP32_nFR24L01,45535033-325f-46e4-9652-32344c30312e,rev?*%
%TF.SameCoordinates,Original*%
%TF.FileFunction,Legend,Top*%
%TF.FilePolarity,Positive*%
%FSLAX46Y46*%
G04 Gerber Fmt 4.6, Leading zero omitted, Abs format (unit mm)*
G04 Created by KiCad (PCBNEW (5.1.10)-1) date 2022-04-03 22:30:19*
%MOMM*%
%LPD*%
G01*
G04 APERTURE LIST*
%ADD10C,0.120000*%
%ADD11C,0.150000*%
%ADD12C,0.800000*%
%ADD13C,1.000000*%
G04 APERTURE END LIST*
D10*
%TO.C,J1*%
X125850000Y-122510000D02*
X125850000Y-120310000D01*
X125850000Y-120310000D02*
X127070000Y-120310000D01*
X127070000Y-120310000D02*
X127070000Y-128730000D01*
X127070000Y-128730000D02*
X119350000Y-128730000D01*
X119350000Y-128730000D02*
X119350000Y-120310000D01*
X119350000Y-120310000D02*
X120570000Y-120310000D01*
X120570000Y-120310000D02*
X120570000Y-122510000D01*
X127070000Y-127510000D02*
X125850000Y-127510000D01*
X125850000Y-127510000D02*
X125850000Y-122510000D01*
X125850000Y-122510000D02*
X127070000Y-122510000D01*
X119350000Y-127510000D02*
X120570000Y-127510000D01*
X120570000Y-127510000D02*
X120570000Y-122510000D01*
X120570000Y-122510000D02*
X119350000Y-122510000D01*
X125850000Y-123510000D02*
X120570000Y-123510000D01*
X124460000Y-123510000D02*
X124780000Y-123510000D01*
X124780000Y-123510000D02*
X124780000Y-126930000D01*
X124780000Y-126930000D02*
X124460000Y-127010000D01*
X124460000Y-127010000D02*
X124140000Y-126930000D01*
X124140000Y-126930000D02*
X124140000Y-123510000D01*
X124140000Y-123510000D02*
X124460000Y-123510000D01*
X123290000Y-122510000D02*
X123130000Y-122510000D01*
X121960000Y-123510000D02*
X122280000Y-123510000D01*
X122280000Y-123510000D02*
X122280000Y-126930000D01*
X122280000Y-126930000D02*
X121960000Y-127010000D01*
X121960000Y-127010000D02*
X121640000Y-126930000D01*
X121640000Y-126930000D02*
X121640000Y-123510000D01*
X121640000Y-123510000D02*
X121960000Y-123510000D01*
X124460000Y-120420000D02*
X124760000Y-119820000D01*
X124760000Y-119820000D02*
X124160000Y-119820000D01*
X124160000Y-119820000D02*
X124460000Y-120420000D01*
%TO.C,U3*%
X172720000Y-128524000D02*
X172720000Y-111760000D01*
X150622000Y-128524000D02*
X172720000Y-128524000D01*
X150622000Y-111760000D02*
X150622000Y-128524000D01*
X172720000Y-111760000D02*
X150622000Y-111760000D01*
D11*
%TO.C,U2*%
X170180000Y-66040000D02*
X154940000Y-66040000D01*
X154940000Y-66040000D02*
X154940000Y-93980000D01*
X154940000Y-93980000D02*
X170180000Y-93980000D01*
X170180000Y-93980000D02*
X170180000Y-66040000D01*
D10*
%TO.C,U1*%
X123150000Y-67080000D02*
G75*
G03*
X123150000Y-67080000I-1500000J0D01*
G01*
X146550000Y-67080000D02*
G75*
G03*
X146550000Y-67080000I-1500000J0D01*
G01*
X147350000Y-114580000D02*
X147350000Y-67080000D01*
X119350000Y-67080000D02*
X119350000Y-114580000D01*
X121350000Y-116580000D02*
X145350000Y-116580000D01*
X121350000Y-65080000D02*
X145350000Y-65080000D01*
X123150000Y-114580000D02*
G75*
G03*
X123150000Y-114580000I-1500000J0D01*
G01*
X146550000Y-114580000D02*
G75*
G03*
X146550000Y-114580000I-1500000J0D01*
G01*
X129350000Y-110580000D02*
X129350000Y-116580000D01*
X137350000Y-110580000D02*
X137350000Y-116580000D01*
X129350000Y-110580000D02*
X137350000Y-110580000D01*
X124460000Y-66350000D02*
X142240000Y-66350000D01*
X142240000Y-66350000D02*
X142240000Y-71430000D01*
X142240000Y-71430000D02*
X124460000Y-71430000D01*
X124460000Y-71430000D02*
X124460000Y-66350000D01*
X125730000Y-70668000D02*
X125730000Y-67112000D01*
X125730000Y-67112000D02*
X128270000Y-67112000D01*
X128270000Y-67112000D02*
X128270000Y-69144000D01*
X128270000Y-69144000D02*
X130810000Y-69144000D01*
X130810000Y-69144000D02*
X130810000Y-67112000D01*
X130810000Y-67112000D02*
X133350000Y-67112000D01*
X133350000Y-67112000D02*
X133350000Y-69144000D01*
X133350000Y-69144000D02*
X135890000Y-69144000D01*
X135890000Y-69144000D02*
X135890000Y-67112000D01*
X135890000Y-67112000D02*
X140970000Y-67112000D01*
X140970000Y-67112000D02*
X140970000Y-70668000D01*
X138430000Y-67112000D02*
X138430000Y-70668000D01*
X125850000Y-72080000D02*
X140850000Y-72080000D01*
X140850000Y-72080000D02*
X140850000Y-90080000D01*
X140850000Y-90080000D02*
X125850000Y-90080000D01*
X125850000Y-90080000D02*
X125850000Y-72080000D01*
D12*
X128670000Y-87940000D02*
G75*
G03*
X128670000Y-87940000I-400000J0D01*
G01*
D10*
X139700000Y-112070000D02*
X142240000Y-112070000D01*
X142240000Y-112070000D02*
X142240000Y-115880000D01*
X142240000Y-115880000D02*
X139700000Y-115880000D01*
X139700000Y-115880000D02*
X139700000Y-112070000D01*
X127000000Y-115880000D02*
X124460000Y-115880000D01*
X124460000Y-115880000D02*
X124460000Y-112070000D01*
X124460000Y-112070000D02*
X127000000Y-112070000D01*
X127000000Y-112070000D02*
X127000000Y-115880000D01*
D13*
X126030000Y-113975000D02*
G75*
G03*
X126030000Y-113975000I-300000J0D01*
G01*
X141270000Y-113975000D02*
G75*
G03*
X141270000Y-113975000I-300000J0D01*
G01*
D10*
X145350000Y-65080000D02*
G75*
G02*
X147350000Y-67080000I0J-2000000D01*
G01*
X119350000Y-67080000D02*
G75*
G02*
X121350000Y-65080000I2000000J0D01*
G01*
X121350000Y-116580000D02*
G75*
G02*
X119350000Y-114580000I0J2000000D01*
G01*
X147350000Y-114580000D02*
G75*
G02*
X145350000Y-116580000I-2000000J0D01*
G01*
%TO.C,J1*%
D11*
X122876666Y-129272380D02*
X122876666Y-129986666D01*
X122829047Y-130129523D01*
X122733809Y-130224761D01*
X122590952Y-130272380D01*
X122495714Y-130272380D01*
X123876666Y-130272380D02*
X123305238Y-130272380D01*
X123590952Y-130272380D02*
X123590952Y-129272380D01*
X123495714Y-129415238D01*
X123400476Y-129510476D01*
X123305238Y-129558095D01*
%TO.C,U3*%
X160528095Y-118332380D02*
X160528095Y-119141904D01*
X160575714Y-119237142D01*
X160623333Y-119284761D01*
X160718571Y-119332380D01*
X160909047Y-119332380D01*
X161004285Y-119284761D01*
X161051904Y-119237142D01*
X161099523Y-119141904D01*
X161099523Y-118332380D01*
X161480476Y-118332380D02*
X162099523Y-118332380D01*
X161766190Y-118713333D01*
X161909047Y-118713333D01*
X162004285Y-118760952D01*
X162051904Y-118808571D01*
X162099523Y-118903809D01*
X162099523Y-119141904D01*
X162051904Y-119237142D01*
X162004285Y-119284761D01*
X161909047Y-119332380D01*
X161623333Y-119332380D01*
X161528095Y-119284761D01*
X161480476Y-119237142D01*
%TO.C,U2*%
X164552380Y-80771904D02*
X165361904Y-80771904D01*
X165457142Y-80724285D01*
X165504761Y-80676666D01*
X165552380Y-80581428D01*
X165552380Y-80390952D01*
X165504761Y-80295714D01*
X165457142Y-80248095D01*
X165361904Y-80200476D01*
X164552380Y-80200476D01*
X164647619Y-79771904D02*
X164600000Y-79724285D01*
X164552380Y-79629047D01*
X164552380Y-79390952D01*
X164600000Y-79295714D01*
X164647619Y-79248095D01*
X164742857Y-79200476D01*
X164838095Y-79200476D01*
X164980952Y-79248095D01*
X165552380Y-79819523D01*
X165552380Y-79200476D01*
%TO.C,U1*%
X132588095Y-81042380D02*
X132588095Y-81851904D01*
X132635714Y-81947142D01*
X132683333Y-81994761D01*
X132778571Y-82042380D01*
X132969047Y-82042380D01*
X133064285Y-81994761D01*
X133111904Y-81947142D01*
X133159523Y-81851904D01*
X133159523Y-81042380D01*
X134159523Y-82042380D02*
X133588095Y-82042380D01*
X133873809Y-82042380D02*
X133873809Y-81042380D01*
X133778571Y-81185238D01*
X133683333Y-81280476D01*
X133588095Y-81328095D01*
X132088095Y-114062380D02*
X132088095Y-114871904D01*
X132135714Y-114967142D01*
X132183333Y-115014761D01*
X132278571Y-115062380D01*
X132469047Y-115062380D01*
X132564285Y-115014761D01*
X132611904Y-114967142D01*
X132659523Y-114871904D01*
X132659523Y-114062380D01*
X133088095Y-115014761D02*
X133230952Y-115062380D01*
X133469047Y-115062380D01*
X133564285Y-115014761D01*
X133611904Y-114967142D01*
X133659523Y-114871904D01*
X133659523Y-114776666D01*
X133611904Y-114681428D01*
X133564285Y-114633809D01*
X133469047Y-114586190D01*
X133278571Y-114538571D01*
X133183333Y-114490952D01*
X133135714Y-114443333D01*
X133088095Y-114348095D01*
X133088095Y-114252857D01*
X133135714Y-114157619D01*
X133183333Y-114110000D01*
X133278571Y-114062380D01*
X133516666Y-114062380D01*
X133659523Y-114110000D01*
X134421428Y-114538571D02*
X134564285Y-114586190D01*
X134611904Y-114633809D01*
X134659523Y-114729047D01*
X134659523Y-114871904D01*
X134611904Y-114967142D01*
X134564285Y-115014761D01*
X134469047Y-115062380D01*
X134088095Y-115062380D01*
X134088095Y-114062380D01*
X134421428Y-114062380D01*
X134516666Y-114110000D01*
X134564285Y-114157619D01*
X134611904Y-114252857D01*
X134611904Y-114348095D01*
X134564285Y-114443333D01*
X134516666Y-114490952D01*
X134421428Y-114538571D01*
X134088095Y-114538571D01*
X139850952Y-110728571D02*
X139993809Y-110776190D01*
X140041428Y-110823809D01*
X140089047Y-110919047D01*
X140089047Y-111061904D01*
X140041428Y-111157142D01*
X139993809Y-111204761D01*
X139898571Y-111252380D01*
X139517619Y-111252380D01*
X139517619Y-110252380D01*
X139850952Y-110252380D01*
X139946190Y-110300000D01*
X139993809Y-110347619D01*
X140041428Y-110442857D01*
X140041428Y-110538095D01*
X139993809Y-110633333D01*
X139946190Y-110680952D01*
X139850952Y-110728571D01*
X139517619Y-110728571D01*
X140660476Y-111252380D02*
X140565238Y-111204761D01*
X140517619Y-111157142D01*
X140470000Y-111061904D01*
X140470000Y-110776190D01*
X140517619Y-110680952D01*
X140565238Y-110633333D01*
X140660476Y-110585714D01*
X140803333Y-110585714D01*
X140898571Y-110633333D01*
X140946190Y-110680952D01*
X140993809Y-110776190D01*
X140993809Y-111061904D01*
X140946190Y-111157142D01*
X140898571Y-111204761D01*
X140803333Y-111252380D01*
X140660476Y-111252380D01*
X141565238Y-111252380D02*
X141470000Y-111204761D01*
X141422380Y-111157142D01*
X141374761Y-111061904D01*
X141374761Y-110776190D01*
X141422380Y-110680952D01*
X141470000Y-110633333D01*
X141565238Y-110585714D01*
X141708095Y-110585714D01*
X141803333Y-110633333D01*
X141850952Y-110680952D01*
X141898571Y-110776190D01*
X141898571Y-111061904D01*
X141850952Y-111157142D01*
X141803333Y-111204761D01*
X141708095Y-111252380D01*
X141565238Y-111252380D01*
X142184285Y-110585714D02*
X142565238Y-110585714D01*
X142327142Y-110252380D02*
X142327142Y-111109523D01*
X142374761Y-111204761D01*
X142470000Y-111252380D01*
X142565238Y-111252380D01*
X123468095Y-110728571D02*
X123801428Y-110728571D01*
X123944285Y-111252380D02*
X123468095Y-111252380D01*
X123468095Y-110252380D01*
X123944285Y-110252380D01*
X124372857Y-110585714D02*
X124372857Y-111252380D01*
X124372857Y-110680952D02*
X124420476Y-110633333D01*
X124515714Y-110585714D01*
X124658571Y-110585714D01*
X124753809Y-110633333D01*
X124801428Y-110728571D01*
X124801428Y-111252380D01*
X125706190Y-111252380D02*
X125706190Y-110728571D01*
X125658571Y-110633333D01*
X125563333Y-110585714D01*
X125372857Y-110585714D01*
X125277619Y-110633333D01*
X125706190Y-111204761D02*
X125610952Y-111252380D01*
X125372857Y-111252380D01*
X125277619Y-111204761D01*
X125230000Y-111109523D01*
X125230000Y-111014285D01*
X125277619Y-110919047D01*
X125372857Y-110871428D01*
X125610952Y-110871428D01*
X125706190Y-110823809D01*
X126182380Y-111252380D02*
X126182380Y-110252380D01*
X126182380Y-110633333D02*
X126277619Y-110585714D01*
X126468095Y-110585714D01*
X126563333Y-110633333D01*
X126610952Y-110680952D01*
X126658571Y-110776190D01*
X126658571Y-111061904D01*
X126610952Y-111157142D01*
X126563333Y-111204761D01*
X126468095Y-111252380D01*
X126277619Y-111252380D01*
X126182380Y-111204761D01*
X127230000Y-111252380D02*
X127134761Y-111204761D01*
X127087142Y-111109523D01*
X127087142Y-110252380D01*
X127991904Y-111204761D02*
X127896666Y-111252380D01*
X127706190Y-111252380D01*
X127610952Y-111204761D01*
X127563333Y-111109523D01*
X127563333Y-110728571D01*
X127610952Y-110633333D01*
X127706190Y-110585714D01*
X127896666Y-110585714D01*
X127991904Y-110633333D01*
X128039523Y-110728571D01*
X128039523Y-110823809D01*
X127563333Y-110919047D01*
%TD*%
M02*
