%TF.GenerationSoftware,KiCad,Pcbnew,(5.1.10)-1*%
%TF.CreationDate,2022-04-03T22:30:19-03:00*%
%TF.ProjectId,ESP32_nFR24L01,45535033-325f-46e4-9652-32344c30312e,rev?*%
%TF.SameCoordinates,Original*%
%TF.FileFunction,Copper,L2,Bot*%
%TF.FilePolarity,Positive*%
%FSLAX46Y46*%
G04 Gerber Fmt 4.6, Leading zero omitted, Abs format (unit mm)*
G04 Created by KiCad (PCBNEW (5.1.10)-1) date 2022-04-03 22:30:19*
%MOMM*%
%LPD*%
G01*
G04 APERTURE LIST*
%TA.AperFunction,ComponentPad*%
%ADD10O,1.700000X2.000000*%
%TD*%
%TA.AperFunction,ComponentPad*%
%ADD11C,1.524000*%
%TD*%
%TA.AperFunction,ComponentPad*%
%ADD12C,1.700000*%
%TD*%
%TA.AperFunction,ComponentPad*%
%ADD13R,1.524000X1.524000*%
%TD*%
%TA.AperFunction,Conductor*%
%ADD14C,1.000000*%
%TD*%
%TA.AperFunction,Conductor*%
%ADD15C,0.254000*%
%TD*%
%TA.AperFunction,Conductor*%
%ADD16C,0.100000*%
%TD*%
G04 APERTURE END LIST*
D10*
%TO.P,J1,2*%
%TO.N,GND*%
X121960000Y-121920000D03*
%TO.P,J1,1*%
%TO.N,12V*%
%TA.AperFunction,ComponentPad*%
G36*
G01*
X125310000Y-121170000D02*
X125310000Y-122670000D01*
G75*
G02*
X125060000Y-122920000I-250000J0D01*
G01*
X123860000Y-122920000D01*
G75*
G02*
X123610000Y-122670000I0J250000D01*
G01*
X123610000Y-121170000D01*
G75*
G02*
X123860000Y-120920000I250000J0D01*
G01*
X125060000Y-120920000D01*
G75*
G02*
X125310000Y-121170000I0J-250000D01*
G01*
G37*
%TD.AperFunction*%
%TD*%
D11*
%TO.P,U3,1*%
%TO.N,12V*%
X152400000Y-126746000D03*
%TO.P,U3,3*%
%TO.N,5V*%
X170942000Y-126746000D03*
%TO.P,U3,2*%
%TO.N,GND*%
X152400000Y-113538000D03*
%TO.P,U3,4*%
X170942000Y-113538000D03*
%TD*%
D12*
%TO.P,U2,8*%
%TO.N,Net-(U2-Pad8)*%
X161290000Y-69850000D03*
%TO.P,U2,7*%
%TO.N,MISO*%
X161290000Y-67310000D03*
%TO.P,U2,6*%
%TO.N,MOSI*%
X163830000Y-69850000D03*
%TO.P,U2,5*%
%TO.N,SCK*%
X163830000Y-67310000D03*
%TO.P,U2,4*%
%TO.N,CSN*%
X166370000Y-69850000D03*
%TO.P,U2,3*%
%TO.N,CE*%
X166370000Y-67310000D03*
%TO.P,U2,2*%
%TO.N,3v3*%
X168910000Y-69850000D03*
D13*
%TO.P,U2,1*%
%TO.N,GND*%
X168910000Y-67310000D03*
%TD*%
%TO.P,U1,1*%
%TO.N,Net-(U1-Pad1)*%
X120650000Y-71120000D03*
D11*
%TO.P,U1,2*%
%TO.N,Net-(U1-Pad2)*%
X120650000Y-73660000D03*
%TO.P,U1,3*%
%TO.N,Net-(U1-Pad3)*%
X120650000Y-76200000D03*
%TO.P,U1,4*%
%TO.N,Net-(U1-Pad4)*%
X120650000Y-78740000D03*
%TO.P,U1,5*%
%TO.N,Net-(U1-Pad5)*%
X120650000Y-81280000D03*
%TO.P,U1,6*%
%TO.N,Net-(U1-Pad6)*%
X120650000Y-83820000D03*
%TO.P,U1,7*%
%TO.N,Net-(U1-Pad7)*%
X120650000Y-86360000D03*
%TO.P,U1,8*%
%TO.N,Net-(U1-Pad8)*%
X120650000Y-88900000D03*
%TO.P,U1,9*%
%TO.N,Net-(U1-Pad9)*%
X120650000Y-91440000D03*
%TO.P,U1,10*%
%TO.N,Net-(U1-Pad10)*%
X120650000Y-93980000D03*
%TO.P,U1,11*%
%TO.N,Net-(U1-Pad11)*%
X120650000Y-96520000D03*
%TO.P,U1,12*%
%TO.N,Net-(U1-Pad12)*%
X120650000Y-99060000D03*
%TO.P,U1,13*%
%TO.N,Net-(U1-Pad13)*%
X120650000Y-101600000D03*
%TO.P,U1,14*%
%TO.N,GND*%
X120650000Y-104140000D03*
%TO.P,U1,15*%
%TO.N,5V*%
X120650000Y-106680000D03*
%TO.P,U1,16*%
%TO.N,3v3*%
X146050000Y-106680000D03*
%TO.P,U1,17*%
%TO.N,GND*%
X146050000Y-104140000D03*
%TO.P,U1,18*%
%TO.N,Net-(U1-Pad18)*%
X146050000Y-101600000D03*
%TO.P,U1,19*%
%TO.N,Net-(U1-Pad19)*%
X146050000Y-99060000D03*
%TO.P,U1,20*%
%TO.N,CE*%
X146050000Y-96520000D03*
%TO.P,U1,21*%
%TO.N,Net-(U1-Pad21)*%
X146050000Y-93980000D03*
%TO.P,U1,22*%
%TO.N,Net-(U1-Pad22)*%
X146050000Y-91440000D03*
%TO.P,U1,23*%
%TO.N,CSN*%
X146050000Y-88900000D03*
%TO.P,U1,24*%
%TO.N,SCK*%
X146050000Y-86360000D03*
%TO.P,U1,25*%
%TO.N,MISO*%
X146050000Y-83820000D03*
%TO.P,U1,26*%
%TO.N,Net-(U1-Pad26)*%
X146050000Y-81280000D03*
%TO.P,U1,27*%
%TO.N,Net-(U1-Pad27)*%
X146050000Y-78740000D03*
%TO.P,U1,28*%
%TO.N,Net-(U1-Pad28)*%
X146050000Y-76200000D03*
%TO.P,U1,29*%
%TO.N,Net-(U1-Pad29)*%
X146050000Y-73660000D03*
%TO.P,U1,30*%
%TO.N,MOSI*%
X146050000Y-71120000D03*
%TD*%
D14*
%TO.N,CE*%
X146050000Y-96520000D02*
X138430000Y-88900000D01*
X138430000Y-88900000D02*
X138430000Y-64770000D01*
X138430000Y-64770000D02*
X142240000Y-60960000D01*
X142240000Y-60960000D02*
X163830000Y-60960000D01*
X166370000Y-63500000D02*
X166370000Y-67310000D01*
X163830000Y-60960000D02*
X166370000Y-63500000D01*
%TO.N,5V*%
X124460000Y-110490000D02*
X120650000Y-106680000D01*
X124460000Y-110490000D02*
X129540000Y-110490000D01*
X129540000Y-110490000D02*
X140970000Y-121920000D01*
X166116000Y-121920000D02*
X170942000Y-126746000D01*
X140970000Y-121920000D02*
X166116000Y-121920000D01*
%TO.N,MOSI*%
X146050000Y-71120000D02*
X153670000Y-71120000D01*
X153670000Y-71120000D02*
X156210000Y-73660000D01*
X156210000Y-73660000D02*
X162560000Y-73660000D01*
X163830000Y-72390000D02*
X163830000Y-69850000D01*
X162560000Y-73660000D02*
X163830000Y-72390000D01*
%TO.N,12V*%
X133350000Y-121920000D02*
X124460000Y-121920000D01*
X138176000Y-126746000D02*
X133350000Y-121920000D01*
X152400000Y-126746000D02*
X138176000Y-126746000D01*
%TD*%
D15*
%TO.N,GND*%
X175578001Y-129858000D02*
X115252000Y-129858000D01*
X115252000Y-122279742D01*
X120488715Y-122279742D01*
X120557904Y-122562745D01*
X120680975Y-122826812D01*
X120853198Y-123061795D01*
X121067954Y-123258664D01*
X121316991Y-123409854D01*
X121590739Y-123509554D01*
X121603110Y-123511476D01*
X121833000Y-123390155D01*
X121833000Y-122047000D01*
X120632768Y-122047000D01*
X120488715Y-122279742D01*
X115252000Y-122279742D01*
X115252000Y-121560258D01*
X120488715Y-121560258D01*
X120632768Y-121793000D01*
X121833000Y-121793000D01*
X121833000Y-120449845D01*
X122087000Y-120449845D01*
X122087000Y-121793000D01*
X122107000Y-121793000D01*
X122107000Y-122047000D01*
X122087000Y-122047000D01*
X122087000Y-123390155D01*
X122316890Y-123511476D01*
X122329261Y-123509554D01*
X122603009Y-123409854D01*
X122844028Y-123263532D01*
X122877631Y-123326398D01*
X123024564Y-123505436D01*
X123203602Y-123652369D01*
X123407865Y-123761550D01*
X123629504Y-123828783D01*
X123860000Y-123851485D01*
X125060000Y-123851485D01*
X125290496Y-123828783D01*
X125512135Y-123761550D01*
X125716398Y-123652369D01*
X125895436Y-123505436D01*
X126025461Y-123347000D01*
X132758918Y-123347000D01*
X137117395Y-127705478D01*
X137162077Y-127759923D01*
X137216522Y-127804605D01*
X137216525Y-127804608D01*
X137379365Y-127938248D01*
X137511872Y-128009074D01*
X137627269Y-128070755D01*
X137814661Y-128127600D01*
X137896258Y-128152352D01*
X137920474Y-128154737D01*
X138105902Y-128173000D01*
X138105910Y-128173000D01*
X138176000Y-128179903D01*
X138246090Y-128173000D01*
X151495537Y-128173000D01*
X151599959Y-128242772D01*
X151907337Y-128370092D01*
X152233648Y-128435000D01*
X152566352Y-128435000D01*
X152892663Y-128370092D01*
X153200041Y-128242772D01*
X153476675Y-128057932D01*
X153711932Y-127822675D01*
X153896772Y-127546041D01*
X154024092Y-127238663D01*
X154089000Y-126912352D01*
X154089000Y-126579648D01*
X154024092Y-126253337D01*
X153896772Y-125945959D01*
X153711932Y-125669325D01*
X153476675Y-125434068D01*
X153200041Y-125249228D01*
X152892663Y-125121908D01*
X152566352Y-125057000D01*
X152233648Y-125057000D01*
X151907337Y-125121908D01*
X151599959Y-125249228D01*
X151495537Y-125319000D01*
X138767083Y-125319000D01*
X134408607Y-120960525D01*
X134363923Y-120906077D01*
X134146634Y-120727752D01*
X133898731Y-120595245D01*
X133629741Y-120513648D01*
X133420098Y-120493000D01*
X133420088Y-120493000D01*
X133350000Y-120486097D01*
X133279912Y-120493000D01*
X126025461Y-120493000D01*
X125895436Y-120334564D01*
X125716398Y-120187631D01*
X125512135Y-120078450D01*
X125290496Y-120011217D01*
X125060000Y-119988515D01*
X123860000Y-119988515D01*
X123629504Y-120011217D01*
X123407865Y-120078450D01*
X123203602Y-120187631D01*
X123024564Y-120334564D01*
X122877631Y-120513602D01*
X122844028Y-120576468D01*
X122603009Y-120430146D01*
X122329261Y-120330446D01*
X122316890Y-120328524D01*
X122087000Y-120449845D01*
X121833000Y-120449845D01*
X121603110Y-120328524D01*
X121590739Y-120330446D01*
X121316991Y-120430146D01*
X121067954Y-120581336D01*
X120853198Y-120778205D01*
X120680975Y-121013188D01*
X120557904Y-121277255D01*
X120488715Y-121560258D01*
X115252000Y-121560258D01*
X115252000Y-106513648D01*
X118961000Y-106513648D01*
X118961000Y-106846352D01*
X119025908Y-107172663D01*
X119153228Y-107480041D01*
X119338068Y-107756675D01*
X119573325Y-107991932D01*
X119849959Y-108176772D01*
X120157337Y-108304092D01*
X120280511Y-108328593D01*
X123401395Y-111449478D01*
X123446077Y-111503923D01*
X123500522Y-111548605D01*
X123500525Y-111548608D01*
X123663365Y-111682248D01*
X123795872Y-111753074D01*
X123911269Y-111814755D01*
X124098661Y-111871600D01*
X124180258Y-111896352D01*
X124204474Y-111898737D01*
X124389902Y-111917000D01*
X124389910Y-111917000D01*
X124460000Y-111923903D01*
X124530090Y-111917000D01*
X128948918Y-111917000D01*
X139911395Y-122879478D01*
X139956077Y-122933923D01*
X140010522Y-122978605D01*
X140010525Y-122978608D01*
X140111889Y-123061795D01*
X140173366Y-123112248D01*
X140421269Y-123244755D01*
X140690259Y-123326352D01*
X140899902Y-123347000D01*
X140899911Y-123347000D01*
X140969999Y-123353903D01*
X141040087Y-123347000D01*
X165524918Y-123347000D01*
X169293407Y-127115490D01*
X169317908Y-127238663D01*
X169445228Y-127546041D01*
X169630068Y-127822675D01*
X169865325Y-128057932D01*
X170141959Y-128242772D01*
X170449337Y-128370092D01*
X170775648Y-128435000D01*
X171108352Y-128435000D01*
X171434663Y-128370092D01*
X171742041Y-128242772D01*
X172018675Y-128057932D01*
X172253932Y-127822675D01*
X172438772Y-127546041D01*
X172566092Y-127238663D01*
X172631000Y-126912352D01*
X172631000Y-126579648D01*
X172566092Y-126253337D01*
X172438772Y-125945959D01*
X172253932Y-125669325D01*
X172018675Y-125434068D01*
X171742041Y-125249228D01*
X171434663Y-125121908D01*
X171311490Y-125097407D01*
X167174607Y-120960525D01*
X167129923Y-120906077D01*
X166912634Y-120727752D01*
X166664731Y-120595245D01*
X166395741Y-120513648D01*
X166186098Y-120493000D01*
X166186088Y-120493000D01*
X166116000Y-120486097D01*
X166045912Y-120493000D01*
X141561083Y-120493000D01*
X135571648Y-114503565D01*
X151614040Y-114503565D01*
X151681020Y-114743656D01*
X151930048Y-114860756D01*
X152197135Y-114927023D01*
X152472017Y-114939910D01*
X152744133Y-114898922D01*
X153003023Y-114805636D01*
X153118980Y-114743656D01*
X153185960Y-114503565D01*
X170156040Y-114503565D01*
X170223020Y-114743656D01*
X170472048Y-114860756D01*
X170739135Y-114927023D01*
X171014017Y-114939910D01*
X171286133Y-114898922D01*
X171545023Y-114805636D01*
X171660980Y-114743656D01*
X171727960Y-114503565D01*
X170942000Y-113717605D01*
X170156040Y-114503565D01*
X153185960Y-114503565D01*
X152400000Y-113717605D01*
X151614040Y-114503565D01*
X135571648Y-114503565D01*
X134678100Y-113610017D01*
X150998090Y-113610017D01*
X151039078Y-113882133D01*
X151132364Y-114141023D01*
X151194344Y-114256980D01*
X151434435Y-114323960D01*
X152220395Y-113538000D01*
X152579605Y-113538000D01*
X153365565Y-114323960D01*
X153605656Y-114256980D01*
X153722756Y-114007952D01*
X153789023Y-113740865D01*
X153795157Y-113610017D01*
X169540090Y-113610017D01*
X169581078Y-113882133D01*
X169674364Y-114141023D01*
X169736344Y-114256980D01*
X169976435Y-114323960D01*
X170762395Y-113538000D01*
X171121605Y-113538000D01*
X171907565Y-114323960D01*
X172147656Y-114256980D01*
X172264756Y-114007952D01*
X172331023Y-113740865D01*
X172343910Y-113465983D01*
X172302922Y-113193867D01*
X172209636Y-112934977D01*
X172147656Y-112819020D01*
X171907565Y-112752040D01*
X171121605Y-113538000D01*
X170762395Y-113538000D01*
X169976435Y-112752040D01*
X169736344Y-112819020D01*
X169619244Y-113068048D01*
X169552977Y-113335135D01*
X169540090Y-113610017D01*
X153795157Y-113610017D01*
X153801910Y-113465983D01*
X153760922Y-113193867D01*
X153667636Y-112934977D01*
X153605656Y-112819020D01*
X153365565Y-112752040D01*
X152579605Y-113538000D01*
X152220395Y-113538000D01*
X151434435Y-112752040D01*
X151194344Y-112819020D01*
X151077244Y-113068048D01*
X151010977Y-113335135D01*
X150998090Y-113610017D01*
X134678100Y-113610017D01*
X133640518Y-112572435D01*
X151614040Y-112572435D01*
X152400000Y-113358395D01*
X153185960Y-112572435D01*
X170156040Y-112572435D01*
X170942000Y-113358395D01*
X171727960Y-112572435D01*
X171660980Y-112332344D01*
X171411952Y-112215244D01*
X171144865Y-112148977D01*
X170869983Y-112136090D01*
X170597867Y-112177078D01*
X170338977Y-112270364D01*
X170223020Y-112332344D01*
X170156040Y-112572435D01*
X153185960Y-112572435D01*
X153118980Y-112332344D01*
X152869952Y-112215244D01*
X152602865Y-112148977D01*
X152327983Y-112136090D01*
X152055867Y-112177078D01*
X151796977Y-112270364D01*
X151681020Y-112332344D01*
X151614040Y-112572435D01*
X133640518Y-112572435D01*
X130598607Y-109530525D01*
X130553923Y-109476077D01*
X130336634Y-109297752D01*
X130088731Y-109165245D01*
X129819741Y-109083648D01*
X129610098Y-109063000D01*
X129610088Y-109063000D01*
X129540000Y-109056097D01*
X129469912Y-109063000D01*
X125051083Y-109063000D01*
X122501731Y-106513648D01*
X144361000Y-106513648D01*
X144361000Y-106846352D01*
X144425908Y-107172663D01*
X144553228Y-107480041D01*
X144738068Y-107756675D01*
X144973325Y-107991932D01*
X145249959Y-108176772D01*
X145557337Y-108304092D01*
X145883648Y-108369000D01*
X146216352Y-108369000D01*
X146542663Y-108304092D01*
X146850041Y-108176772D01*
X147126675Y-107991932D01*
X147361932Y-107756675D01*
X147546772Y-107480041D01*
X147674092Y-107172663D01*
X147739000Y-106846352D01*
X147739000Y-106513648D01*
X147674092Y-106187337D01*
X147546772Y-105879959D01*
X147361932Y-105603325D01*
X147126675Y-105368068D01*
X146850041Y-105183228D01*
X146817997Y-105169955D01*
X146835960Y-105105565D01*
X146050000Y-104319605D01*
X145264040Y-105105565D01*
X145282003Y-105169955D01*
X145249959Y-105183228D01*
X144973325Y-105368068D01*
X144738068Y-105603325D01*
X144553228Y-105879959D01*
X144425908Y-106187337D01*
X144361000Y-106513648D01*
X122501731Y-106513648D01*
X122298593Y-106310511D01*
X122274092Y-106187337D01*
X122146772Y-105879959D01*
X121961932Y-105603325D01*
X121726675Y-105368068D01*
X121450041Y-105183228D01*
X121417997Y-105169955D01*
X121435960Y-105105565D01*
X120650000Y-104319605D01*
X119864040Y-105105565D01*
X119882003Y-105169955D01*
X119849959Y-105183228D01*
X119573325Y-105368068D01*
X119338068Y-105603325D01*
X119153228Y-105879959D01*
X119025908Y-106187337D01*
X118961000Y-106513648D01*
X115252000Y-106513648D01*
X115252000Y-104212017D01*
X119248090Y-104212017D01*
X119289078Y-104484133D01*
X119382364Y-104743023D01*
X119444344Y-104858980D01*
X119684435Y-104925960D01*
X120470395Y-104140000D01*
X120829605Y-104140000D01*
X121615565Y-104925960D01*
X121855656Y-104858980D01*
X121972756Y-104609952D01*
X122039023Y-104342865D01*
X122045157Y-104212017D01*
X144648090Y-104212017D01*
X144689078Y-104484133D01*
X144782364Y-104743023D01*
X144844344Y-104858980D01*
X145084435Y-104925960D01*
X145870395Y-104140000D01*
X146229605Y-104140000D01*
X147015565Y-104925960D01*
X147255656Y-104858980D01*
X147372756Y-104609952D01*
X147439023Y-104342865D01*
X147451910Y-104067983D01*
X147410922Y-103795867D01*
X147317636Y-103536977D01*
X147255656Y-103421020D01*
X147015565Y-103354040D01*
X146229605Y-104140000D01*
X145870395Y-104140000D01*
X145084435Y-103354040D01*
X144844344Y-103421020D01*
X144727244Y-103670048D01*
X144660977Y-103937135D01*
X144648090Y-104212017D01*
X122045157Y-104212017D01*
X122051910Y-104067983D01*
X122010922Y-103795867D01*
X121917636Y-103536977D01*
X121855656Y-103421020D01*
X121615565Y-103354040D01*
X120829605Y-104140000D01*
X120470395Y-104140000D01*
X119684435Y-103354040D01*
X119444344Y-103421020D01*
X119327244Y-103670048D01*
X119260977Y-103937135D01*
X119248090Y-104212017D01*
X115252000Y-104212017D01*
X115252000Y-70358000D01*
X118956515Y-70358000D01*
X118956515Y-71882000D01*
X118974413Y-72063724D01*
X119027420Y-72238464D01*
X119113499Y-72399505D01*
X119229341Y-72540659D01*
X119317974Y-72613398D01*
X119153228Y-72859959D01*
X119025908Y-73167337D01*
X118961000Y-73493648D01*
X118961000Y-73826352D01*
X119025908Y-74152663D01*
X119153228Y-74460041D01*
X119338068Y-74736675D01*
X119531393Y-74930000D01*
X119338068Y-75123325D01*
X119153228Y-75399959D01*
X119025908Y-75707337D01*
X118961000Y-76033648D01*
X118961000Y-76366352D01*
X119025908Y-76692663D01*
X119153228Y-77000041D01*
X119338068Y-77276675D01*
X119531393Y-77470000D01*
X119338068Y-77663325D01*
X119153228Y-77939959D01*
X119025908Y-78247337D01*
X118961000Y-78573648D01*
X118961000Y-78906352D01*
X119025908Y-79232663D01*
X119153228Y-79540041D01*
X119338068Y-79816675D01*
X119531393Y-80010000D01*
X119338068Y-80203325D01*
X119153228Y-80479959D01*
X119025908Y-80787337D01*
X118961000Y-81113648D01*
X118961000Y-81446352D01*
X119025908Y-81772663D01*
X119153228Y-82080041D01*
X119338068Y-82356675D01*
X119531393Y-82550000D01*
X119338068Y-82743325D01*
X119153228Y-83019959D01*
X119025908Y-83327337D01*
X118961000Y-83653648D01*
X118961000Y-83986352D01*
X119025908Y-84312663D01*
X119153228Y-84620041D01*
X119338068Y-84896675D01*
X119531393Y-85090000D01*
X119338068Y-85283325D01*
X119153228Y-85559959D01*
X119025908Y-85867337D01*
X118961000Y-86193648D01*
X118961000Y-86526352D01*
X119025908Y-86852663D01*
X119153228Y-87160041D01*
X119338068Y-87436675D01*
X119531393Y-87630000D01*
X119338068Y-87823325D01*
X119153228Y-88099959D01*
X119025908Y-88407337D01*
X118961000Y-88733648D01*
X118961000Y-89066352D01*
X119025908Y-89392663D01*
X119153228Y-89700041D01*
X119338068Y-89976675D01*
X119531393Y-90170000D01*
X119338068Y-90363325D01*
X119153228Y-90639959D01*
X119025908Y-90947337D01*
X118961000Y-91273648D01*
X118961000Y-91606352D01*
X119025908Y-91932663D01*
X119153228Y-92240041D01*
X119338068Y-92516675D01*
X119531393Y-92710000D01*
X119338068Y-92903325D01*
X119153228Y-93179959D01*
X119025908Y-93487337D01*
X118961000Y-93813648D01*
X118961000Y-94146352D01*
X119025908Y-94472663D01*
X119153228Y-94780041D01*
X119338068Y-95056675D01*
X119531393Y-95250000D01*
X119338068Y-95443325D01*
X119153228Y-95719959D01*
X119025908Y-96027337D01*
X118961000Y-96353648D01*
X118961000Y-96686352D01*
X119025908Y-97012663D01*
X119153228Y-97320041D01*
X119338068Y-97596675D01*
X119531393Y-97790000D01*
X119338068Y-97983325D01*
X119153228Y-98259959D01*
X119025908Y-98567337D01*
X118961000Y-98893648D01*
X118961000Y-99226352D01*
X119025908Y-99552663D01*
X119153228Y-99860041D01*
X119338068Y-100136675D01*
X119531393Y-100330000D01*
X119338068Y-100523325D01*
X119153228Y-100799959D01*
X119025908Y-101107337D01*
X118961000Y-101433648D01*
X118961000Y-101766352D01*
X119025908Y-102092663D01*
X119153228Y-102400041D01*
X119338068Y-102676675D01*
X119573325Y-102911932D01*
X119849959Y-103096772D01*
X119882003Y-103110045D01*
X119864040Y-103174435D01*
X120650000Y-103960395D01*
X121435960Y-103174435D01*
X121417997Y-103110045D01*
X121450041Y-103096772D01*
X121726675Y-102911932D01*
X121961932Y-102676675D01*
X122146772Y-102400041D01*
X122274092Y-102092663D01*
X122339000Y-101766352D01*
X122339000Y-101433648D01*
X122274092Y-101107337D01*
X122146772Y-100799959D01*
X121961932Y-100523325D01*
X121768607Y-100330000D01*
X121961932Y-100136675D01*
X122146772Y-99860041D01*
X122274092Y-99552663D01*
X122339000Y-99226352D01*
X122339000Y-98893648D01*
X122274092Y-98567337D01*
X122146772Y-98259959D01*
X121961932Y-97983325D01*
X121768607Y-97790000D01*
X121961932Y-97596675D01*
X122146772Y-97320041D01*
X122274092Y-97012663D01*
X122339000Y-96686352D01*
X122339000Y-96353648D01*
X122274092Y-96027337D01*
X122146772Y-95719959D01*
X121961932Y-95443325D01*
X121768607Y-95250000D01*
X121961932Y-95056675D01*
X122146772Y-94780041D01*
X122274092Y-94472663D01*
X122339000Y-94146352D01*
X122339000Y-93813648D01*
X122274092Y-93487337D01*
X122146772Y-93179959D01*
X121961932Y-92903325D01*
X121768607Y-92710000D01*
X121961932Y-92516675D01*
X122146772Y-92240041D01*
X122274092Y-91932663D01*
X122339000Y-91606352D01*
X122339000Y-91273648D01*
X122274092Y-90947337D01*
X122146772Y-90639959D01*
X121961932Y-90363325D01*
X121768607Y-90170000D01*
X121961932Y-89976675D01*
X122146772Y-89700041D01*
X122274092Y-89392663D01*
X122339000Y-89066352D01*
X122339000Y-88733648D01*
X122274092Y-88407337D01*
X122146772Y-88099959D01*
X121961932Y-87823325D01*
X121768607Y-87630000D01*
X121961932Y-87436675D01*
X122146772Y-87160041D01*
X122274092Y-86852663D01*
X122339000Y-86526352D01*
X122339000Y-86193648D01*
X122274092Y-85867337D01*
X122146772Y-85559959D01*
X121961932Y-85283325D01*
X121768607Y-85090000D01*
X121961932Y-84896675D01*
X122146772Y-84620041D01*
X122274092Y-84312663D01*
X122339000Y-83986352D01*
X122339000Y-83653648D01*
X122274092Y-83327337D01*
X122146772Y-83019959D01*
X121961932Y-82743325D01*
X121768607Y-82550000D01*
X121961932Y-82356675D01*
X122146772Y-82080041D01*
X122274092Y-81772663D01*
X122339000Y-81446352D01*
X122339000Y-81113648D01*
X122274092Y-80787337D01*
X122146772Y-80479959D01*
X121961932Y-80203325D01*
X121768607Y-80010000D01*
X121961932Y-79816675D01*
X122146772Y-79540041D01*
X122274092Y-79232663D01*
X122339000Y-78906352D01*
X122339000Y-78573648D01*
X122274092Y-78247337D01*
X122146772Y-77939959D01*
X121961932Y-77663325D01*
X121768607Y-77470000D01*
X121961932Y-77276675D01*
X122146772Y-77000041D01*
X122274092Y-76692663D01*
X122339000Y-76366352D01*
X122339000Y-76033648D01*
X122274092Y-75707337D01*
X122146772Y-75399959D01*
X121961932Y-75123325D01*
X121768607Y-74930000D01*
X121961932Y-74736675D01*
X122146772Y-74460041D01*
X122274092Y-74152663D01*
X122339000Y-73826352D01*
X122339000Y-73493648D01*
X122274092Y-73167337D01*
X122146772Y-72859959D01*
X121982026Y-72613398D01*
X122070659Y-72540659D01*
X122186501Y-72399505D01*
X122272580Y-72238464D01*
X122325587Y-72063724D01*
X122343485Y-71882000D01*
X122343485Y-70358000D01*
X122325587Y-70176276D01*
X122272580Y-70001536D01*
X122186501Y-69840495D01*
X122070659Y-69699341D01*
X121929505Y-69583499D01*
X121768464Y-69497420D01*
X121593724Y-69444413D01*
X121412000Y-69426515D01*
X119888000Y-69426515D01*
X119706276Y-69444413D01*
X119531536Y-69497420D01*
X119370495Y-69583499D01*
X119229341Y-69699341D01*
X119113499Y-69840495D01*
X119027420Y-70001536D01*
X118974413Y-70176276D01*
X118956515Y-70358000D01*
X115252000Y-70358000D01*
X115252000Y-64770000D01*
X136996097Y-64770000D01*
X137003001Y-64840098D01*
X137003000Y-88829912D01*
X136996097Y-88900000D01*
X137003000Y-88970088D01*
X137003000Y-88970097D01*
X137023648Y-89179740D01*
X137105245Y-89448730D01*
X137105246Y-89448731D01*
X137237753Y-89696634D01*
X137371392Y-89859474D01*
X137371395Y-89859477D01*
X137416077Y-89913922D01*
X137470523Y-89958605D01*
X144401407Y-96889489D01*
X144425908Y-97012663D01*
X144553228Y-97320041D01*
X144738068Y-97596675D01*
X144931393Y-97790000D01*
X144738068Y-97983325D01*
X144553228Y-98259959D01*
X144425908Y-98567337D01*
X144361000Y-98893648D01*
X144361000Y-99226352D01*
X144425908Y-99552663D01*
X144553228Y-99860041D01*
X144738068Y-100136675D01*
X144931393Y-100330000D01*
X144738068Y-100523325D01*
X144553228Y-100799959D01*
X144425908Y-101107337D01*
X144361000Y-101433648D01*
X144361000Y-101766352D01*
X144425908Y-102092663D01*
X144553228Y-102400041D01*
X144738068Y-102676675D01*
X144973325Y-102911932D01*
X145249959Y-103096772D01*
X145282003Y-103110045D01*
X145264040Y-103174435D01*
X146050000Y-103960395D01*
X146835960Y-103174435D01*
X146817997Y-103110045D01*
X146850041Y-103096772D01*
X147126675Y-102911932D01*
X147361932Y-102676675D01*
X147546772Y-102400041D01*
X147674092Y-102092663D01*
X147739000Y-101766352D01*
X147739000Y-101433648D01*
X147674092Y-101107337D01*
X147546772Y-100799959D01*
X147361932Y-100523325D01*
X147168607Y-100330000D01*
X147361932Y-100136675D01*
X147546772Y-99860041D01*
X147674092Y-99552663D01*
X147739000Y-99226352D01*
X147739000Y-98893648D01*
X147674092Y-98567337D01*
X147546772Y-98259959D01*
X147361932Y-97983325D01*
X147168607Y-97790000D01*
X147361932Y-97596675D01*
X147546772Y-97320041D01*
X147674092Y-97012663D01*
X147739000Y-96686352D01*
X147739000Y-96353648D01*
X147674092Y-96027337D01*
X147546772Y-95719959D01*
X147361932Y-95443325D01*
X147168607Y-95250000D01*
X147361932Y-95056675D01*
X147546772Y-94780041D01*
X147674092Y-94472663D01*
X147739000Y-94146352D01*
X147739000Y-93813648D01*
X147674092Y-93487337D01*
X147546772Y-93179959D01*
X147361932Y-92903325D01*
X147168607Y-92710000D01*
X147361932Y-92516675D01*
X147546772Y-92240041D01*
X147674092Y-91932663D01*
X147739000Y-91606352D01*
X147739000Y-91273648D01*
X147674092Y-90947337D01*
X147546772Y-90639959D01*
X147361932Y-90363325D01*
X147168607Y-90170000D01*
X147361932Y-89976675D01*
X147546772Y-89700041D01*
X147674092Y-89392663D01*
X147739000Y-89066352D01*
X147739000Y-88733648D01*
X147674092Y-88407337D01*
X147546772Y-88099959D01*
X147361932Y-87823325D01*
X147168607Y-87630000D01*
X147361932Y-87436675D01*
X147546772Y-87160041D01*
X147674092Y-86852663D01*
X147739000Y-86526352D01*
X147739000Y-86193648D01*
X147674092Y-85867337D01*
X147546772Y-85559959D01*
X147361932Y-85283325D01*
X147168607Y-85090000D01*
X147361932Y-84896675D01*
X147546772Y-84620041D01*
X147674092Y-84312663D01*
X147739000Y-83986352D01*
X147739000Y-83653648D01*
X147674092Y-83327337D01*
X147546772Y-83019959D01*
X147361932Y-82743325D01*
X147168607Y-82550000D01*
X147361932Y-82356675D01*
X147546772Y-82080041D01*
X147674092Y-81772663D01*
X147739000Y-81446352D01*
X147739000Y-81113648D01*
X147674092Y-80787337D01*
X147546772Y-80479959D01*
X147361932Y-80203325D01*
X147168607Y-80010000D01*
X147361932Y-79816675D01*
X147546772Y-79540041D01*
X147674092Y-79232663D01*
X147739000Y-78906352D01*
X147739000Y-78573648D01*
X147674092Y-78247337D01*
X147546772Y-77939959D01*
X147361932Y-77663325D01*
X147168607Y-77470000D01*
X147361932Y-77276675D01*
X147546772Y-77000041D01*
X147674092Y-76692663D01*
X147739000Y-76366352D01*
X147739000Y-76033648D01*
X147674092Y-75707337D01*
X147546772Y-75399959D01*
X147361932Y-75123325D01*
X147168607Y-74930000D01*
X147361932Y-74736675D01*
X147546772Y-74460041D01*
X147674092Y-74152663D01*
X147739000Y-73826352D01*
X147739000Y-73493648D01*
X147674092Y-73167337D01*
X147546772Y-72859959D01*
X147361932Y-72583325D01*
X147325607Y-72547000D01*
X153078918Y-72547000D01*
X155151390Y-74619472D01*
X155196077Y-74673923D01*
X155413366Y-74852248D01*
X155661269Y-74984755D01*
X155930259Y-75066352D01*
X156139902Y-75087000D01*
X156139911Y-75087000D01*
X156209999Y-75093903D01*
X156280087Y-75087000D01*
X162489912Y-75087000D01*
X162560000Y-75093903D01*
X162630088Y-75087000D01*
X162630098Y-75087000D01*
X162839741Y-75066352D01*
X163108731Y-74984755D01*
X163356634Y-74852248D01*
X163573923Y-74673923D01*
X163618610Y-74619472D01*
X164789477Y-73448605D01*
X164843922Y-73403923D01*
X165022248Y-73186634D01*
X165154755Y-72938731D01*
X165236352Y-72669741D01*
X165257000Y-72460098D01*
X165257000Y-72460089D01*
X165263903Y-72390001D01*
X165257000Y-72319913D01*
X165257000Y-71243497D01*
X165528275Y-71424757D01*
X165851668Y-71558711D01*
X166194981Y-71627000D01*
X166545019Y-71627000D01*
X166888332Y-71558711D01*
X167211725Y-71424757D01*
X167502771Y-71230286D01*
X167640000Y-71093057D01*
X167777229Y-71230286D01*
X168068275Y-71424757D01*
X168391668Y-71558711D01*
X168734981Y-71627000D01*
X169085019Y-71627000D01*
X169428332Y-71558711D01*
X169751725Y-71424757D01*
X170042771Y-71230286D01*
X170290286Y-70982771D01*
X170484757Y-70691725D01*
X170618711Y-70368332D01*
X170687000Y-70025019D01*
X170687000Y-69674981D01*
X170618711Y-69331668D01*
X170484757Y-69008275D01*
X170290286Y-68717229D01*
X170108387Y-68535330D01*
X170123185Y-68523185D01*
X170202537Y-68426494D01*
X170261502Y-68316180D01*
X170297812Y-68196482D01*
X170310072Y-68072000D01*
X170307000Y-67595750D01*
X170148250Y-67437000D01*
X169037000Y-67437000D01*
X169037000Y-67457000D01*
X168783000Y-67457000D01*
X168783000Y-67437000D01*
X168763000Y-67437000D01*
X168763000Y-67183000D01*
X168783000Y-67183000D01*
X168783000Y-66071750D01*
X169037000Y-66071750D01*
X169037000Y-67183000D01*
X170148250Y-67183000D01*
X170307000Y-67024250D01*
X170310072Y-66548000D01*
X170297812Y-66423518D01*
X170261502Y-66303820D01*
X170202537Y-66193506D01*
X170123185Y-66096815D01*
X170026494Y-66017463D01*
X169916180Y-65958498D01*
X169796482Y-65922188D01*
X169672000Y-65909928D01*
X169195750Y-65913000D01*
X169037000Y-66071750D01*
X168783000Y-66071750D01*
X168624250Y-65913000D01*
X168148000Y-65909928D01*
X168023518Y-65922188D01*
X167903820Y-65958498D01*
X167797000Y-66015595D01*
X167797000Y-63570087D01*
X167803903Y-63499999D01*
X167797000Y-63429911D01*
X167797000Y-63429902D01*
X167776352Y-63220259D01*
X167694755Y-62951269D01*
X167562248Y-62703366D01*
X167383922Y-62486077D01*
X167329477Y-62441395D01*
X164888610Y-60000528D01*
X164843923Y-59946077D01*
X164626634Y-59767752D01*
X164378731Y-59635245D01*
X164109741Y-59553648D01*
X163900098Y-59533000D01*
X163900088Y-59533000D01*
X163830000Y-59526097D01*
X163759912Y-59533000D01*
X142310090Y-59533000D01*
X142240000Y-59526097D01*
X142169910Y-59533000D01*
X142169902Y-59533000D01*
X141984474Y-59551263D01*
X141960258Y-59553648D01*
X141878661Y-59578400D01*
X141691269Y-59635245D01*
X141575872Y-59696926D01*
X141443365Y-59767752D01*
X141280525Y-59901392D01*
X141280522Y-59901395D01*
X141226077Y-59946077D01*
X141181395Y-60000522D01*
X137470523Y-63711395D01*
X137416078Y-63756077D01*
X137371396Y-63810522D01*
X137371392Y-63810526D01*
X137237753Y-63973366D01*
X137105246Y-64221269D01*
X137023649Y-64490259D01*
X136996097Y-64770000D01*
X115252000Y-64770000D01*
X115252000Y-59372000D01*
X175578000Y-59372000D01*
X175578001Y-129858000D01*
%TA.AperFunction,Conductor*%
D16*
G36*
X175578001Y-129858000D02*
G01*
X115252000Y-129858000D01*
X115252000Y-122279742D01*
X120488715Y-122279742D01*
X120557904Y-122562745D01*
X120680975Y-122826812D01*
X120853198Y-123061795D01*
X121067954Y-123258664D01*
X121316991Y-123409854D01*
X121590739Y-123509554D01*
X121603110Y-123511476D01*
X121833000Y-123390155D01*
X121833000Y-122047000D01*
X120632768Y-122047000D01*
X120488715Y-122279742D01*
X115252000Y-122279742D01*
X115252000Y-121560258D01*
X120488715Y-121560258D01*
X120632768Y-121793000D01*
X121833000Y-121793000D01*
X121833000Y-120449845D01*
X122087000Y-120449845D01*
X122087000Y-121793000D01*
X122107000Y-121793000D01*
X122107000Y-122047000D01*
X122087000Y-122047000D01*
X122087000Y-123390155D01*
X122316890Y-123511476D01*
X122329261Y-123509554D01*
X122603009Y-123409854D01*
X122844028Y-123263532D01*
X122877631Y-123326398D01*
X123024564Y-123505436D01*
X123203602Y-123652369D01*
X123407865Y-123761550D01*
X123629504Y-123828783D01*
X123860000Y-123851485D01*
X125060000Y-123851485D01*
X125290496Y-123828783D01*
X125512135Y-123761550D01*
X125716398Y-123652369D01*
X125895436Y-123505436D01*
X126025461Y-123347000D01*
X132758918Y-123347000D01*
X137117395Y-127705478D01*
X137162077Y-127759923D01*
X137216522Y-127804605D01*
X137216525Y-127804608D01*
X137379365Y-127938248D01*
X137511872Y-128009074D01*
X137627269Y-128070755D01*
X137814661Y-128127600D01*
X137896258Y-128152352D01*
X137920474Y-128154737D01*
X138105902Y-128173000D01*
X138105910Y-128173000D01*
X138176000Y-128179903D01*
X138246090Y-128173000D01*
X151495537Y-128173000D01*
X151599959Y-128242772D01*
X151907337Y-128370092D01*
X152233648Y-128435000D01*
X152566352Y-128435000D01*
X152892663Y-128370092D01*
X153200041Y-128242772D01*
X153476675Y-128057932D01*
X153711932Y-127822675D01*
X153896772Y-127546041D01*
X154024092Y-127238663D01*
X154089000Y-126912352D01*
X154089000Y-126579648D01*
X154024092Y-126253337D01*
X153896772Y-125945959D01*
X153711932Y-125669325D01*
X153476675Y-125434068D01*
X153200041Y-125249228D01*
X152892663Y-125121908D01*
X152566352Y-125057000D01*
X152233648Y-125057000D01*
X151907337Y-125121908D01*
X151599959Y-125249228D01*
X151495537Y-125319000D01*
X138767083Y-125319000D01*
X134408607Y-120960525D01*
X134363923Y-120906077D01*
X134146634Y-120727752D01*
X133898731Y-120595245D01*
X133629741Y-120513648D01*
X133420098Y-120493000D01*
X133420088Y-120493000D01*
X133350000Y-120486097D01*
X133279912Y-120493000D01*
X126025461Y-120493000D01*
X125895436Y-120334564D01*
X125716398Y-120187631D01*
X125512135Y-120078450D01*
X125290496Y-120011217D01*
X125060000Y-119988515D01*
X123860000Y-119988515D01*
X123629504Y-120011217D01*
X123407865Y-120078450D01*
X123203602Y-120187631D01*
X123024564Y-120334564D01*
X122877631Y-120513602D01*
X122844028Y-120576468D01*
X122603009Y-120430146D01*
X122329261Y-120330446D01*
X122316890Y-120328524D01*
X122087000Y-120449845D01*
X121833000Y-120449845D01*
X121603110Y-120328524D01*
X121590739Y-120330446D01*
X121316991Y-120430146D01*
X121067954Y-120581336D01*
X120853198Y-120778205D01*
X120680975Y-121013188D01*
X120557904Y-121277255D01*
X120488715Y-121560258D01*
X115252000Y-121560258D01*
X115252000Y-106513648D01*
X118961000Y-106513648D01*
X118961000Y-106846352D01*
X119025908Y-107172663D01*
X119153228Y-107480041D01*
X119338068Y-107756675D01*
X119573325Y-107991932D01*
X119849959Y-108176772D01*
X120157337Y-108304092D01*
X120280511Y-108328593D01*
X123401395Y-111449478D01*
X123446077Y-111503923D01*
X123500522Y-111548605D01*
X123500525Y-111548608D01*
X123663365Y-111682248D01*
X123795872Y-111753074D01*
X123911269Y-111814755D01*
X124098661Y-111871600D01*
X124180258Y-111896352D01*
X124204474Y-111898737D01*
X124389902Y-111917000D01*
X124389910Y-111917000D01*
X124460000Y-111923903D01*
X124530090Y-111917000D01*
X128948918Y-111917000D01*
X139911395Y-122879478D01*
X139956077Y-122933923D01*
X140010522Y-122978605D01*
X140010525Y-122978608D01*
X140111889Y-123061795D01*
X140173366Y-123112248D01*
X140421269Y-123244755D01*
X140690259Y-123326352D01*
X140899902Y-123347000D01*
X140899911Y-123347000D01*
X140969999Y-123353903D01*
X141040087Y-123347000D01*
X165524918Y-123347000D01*
X169293407Y-127115490D01*
X169317908Y-127238663D01*
X169445228Y-127546041D01*
X169630068Y-127822675D01*
X169865325Y-128057932D01*
X170141959Y-128242772D01*
X170449337Y-128370092D01*
X170775648Y-128435000D01*
X171108352Y-128435000D01*
X171434663Y-128370092D01*
X171742041Y-128242772D01*
X172018675Y-128057932D01*
X172253932Y-127822675D01*
X172438772Y-127546041D01*
X172566092Y-127238663D01*
X172631000Y-126912352D01*
X172631000Y-126579648D01*
X172566092Y-126253337D01*
X172438772Y-125945959D01*
X172253932Y-125669325D01*
X172018675Y-125434068D01*
X171742041Y-125249228D01*
X171434663Y-125121908D01*
X171311490Y-125097407D01*
X167174607Y-120960525D01*
X167129923Y-120906077D01*
X166912634Y-120727752D01*
X166664731Y-120595245D01*
X166395741Y-120513648D01*
X166186098Y-120493000D01*
X166186088Y-120493000D01*
X166116000Y-120486097D01*
X166045912Y-120493000D01*
X141561083Y-120493000D01*
X135571648Y-114503565D01*
X151614040Y-114503565D01*
X151681020Y-114743656D01*
X151930048Y-114860756D01*
X152197135Y-114927023D01*
X152472017Y-114939910D01*
X152744133Y-114898922D01*
X153003023Y-114805636D01*
X153118980Y-114743656D01*
X153185960Y-114503565D01*
X170156040Y-114503565D01*
X170223020Y-114743656D01*
X170472048Y-114860756D01*
X170739135Y-114927023D01*
X171014017Y-114939910D01*
X171286133Y-114898922D01*
X171545023Y-114805636D01*
X171660980Y-114743656D01*
X171727960Y-114503565D01*
X170942000Y-113717605D01*
X170156040Y-114503565D01*
X153185960Y-114503565D01*
X152400000Y-113717605D01*
X151614040Y-114503565D01*
X135571648Y-114503565D01*
X134678100Y-113610017D01*
X150998090Y-113610017D01*
X151039078Y-113882133D01*
X151132364Y-114141023D01*
X151194344Y-114256980D01*
X151434435Y-114323960D01*
X152220395Y-113538000D01*
X152579605Y-113538000D01*
X153365565Y-114323960D01*
X153605656Y-114256980D01*
X153722756Y-114007952D01*
X153789023Y-113740865D01*
X153795157Y-113610017D01*
X169540090Y-113610017D01*
X169581078Y-113882133D01*
X169674364Y-114141023D01*
X169736344Y-114256980D01*
X169976435Y-114323960D01*
X170762395Y-113538000D01*
X171121605Y-113538000D01*
X171907565Y-114323960D01*
X172147656Y-114256980D01*
X172264756Y-114007952D01*
X172331023Y-113740865D01*
X172343910Y-113465983D01*
X172302922Y-113193867D01*
X172209636Y-112934977D01*
X172147656Y-112819020D01*
X171907565Y-112752040D01*
X171121605Y-113538000D01*
X170762395Y-113538000D01*
X169976435Y-112752040D01*
X169736344Y-112819020D01*
X169619244Y-113068048D01*
X169552977Y-113335135D01*
X169540090Y-113610017D01*
X153795157Y-113610017D01*
X153801910Y-113465983D01*
X153760922Y-113193867D01*
X153667636Y-112934977D01*
X153605656Y-112819020D01*
X153365565Y-112752040D01*
X152579605Y-113538000D01*
X152220395Y-113538000D01*
X151434435Y-112752040D01*
X151194344Y-112819020D01*
X151077244Y-113068048D01*
X151010977Y-113335135D01*
X150998090Y-113610017D01*
X134678100Y-113610017D01*
X133640518Y-112572435D01*
X151614040Y-112572435D01*
X152400000Y-113358395D01*
X153185960Y-112572435D01*
X170156040Y-112572435D01*
X170942000Y-113358395D01*
X171727960Y-112572435D01*
X171660980Y-112332344D01*
X171411952Y-112215244D01*
X171144865Y-112148977D01*
X170869983Y-112136090D01*
X170597867Y-112177078D01*
X170338977Y-112270364D01*
X170223020Y-112332344D01*
X170156040Y-112572435D01*
X153185960Y-112572435D01*
X153118980Y-112332344D01*
X152869952Y-112215244D01*
X152602865Y-112148977D01*
X152327983Y-112136090D01*
X152055867Y-112177078D01*
X151796977Y-112270364D01*
X151681020Y-112332344D01*
X151614040Y-112572435D01*
X133640518Y-112572435D01*
X130598607Y-109530525D01*
X130553923Y-109476077D01*
X130336634Y-109297752D01*
X130088731Y-109165245D01*
X129819741Y-109083648D01*
X129610098Y-109063000D01*
X129610088Y-109063000D01*
X129540000Y-109056097D01*
X129469912Y-109063000D01*
X125051083Y-109063000D01*
X122501731Y-106513648D01*
X144361000Y-106513648D01*
X144361000Y-106846352D01*
X144425908Y-107172663D01*
X144553228Y-107480041D01*
X144738068Y-107756675D01*
X144973325Y-107991932D01*
X145249959Y-108176772D01*
X145557337Y-108304092D01*
X145883648Y-108369000D01*
X146216352Y-108369000D01*
X146542663Y-108304092D01*
X146850041Y-108176772D01*
X147126675Y-107991932D01*
X147361932Y-107756675D01*
X147546772Y-107480041D01*
X147674092Y-107172663D01*
X147739000Y-106846352D01*
X147739000Y-106513648D01*
X147674092Y-106187337D01*
X147546772Y-105879959D01*
X147361932Y-105603325D01*
X147126675Y-105368068D01*
X146850041Y-105183228D01*
X146817997Y-105169955D01*
X146835960Y-105105565D01*
X146050000Y-104319605D01*
X145264040Y-105105565D01*
X145282003Y-105169955D01*
X145249959Y-105183228D01*
X144973325Y-105368068D01*
X144738068Y-105603325D01*
X144553228Y-105879959D01*
X144425908Y-106187337D01*
X144361000Y-106513648D01*
X122501731Y-106513648D01*
X122298593Y-106310511D01*
X122274092Y-106187337D01*
X122146772Y-105879959D01*
X121961932Y-105603325D01*
X121726675Y-105368068D01*
X121450041Y-105183228D01*
X121417997Y-105169955D01*
X121435960Y-105105565D01*
X120650000Y-104319605D01*
X119864040Y-105105565D01*
X119882003Y-105169955D01*
X119849959Y-105183228D01*
X119573325Y-105368068D01*
X119338068Y-105603325D01*
X119153228Y-105879959D01*
X119025908Y-106187337D01*
X118961000Y-106513648D01*
X115252000Y-106513648D01*
X115252000Y-104212017D01*
X119248090Y-104212017D01*
X119289078Y-104484133D01*
X119382364Y-104743023D01*
X119444344Y-104858980D01*
X119684435Y-104925960D01*
X120470395Y-104140000D01*
X120829605Y-104140000D01*
X121615565Y-104925960D01*
X121855656Y-104858980D01*
X121972756Y-104609952D01*
X122039023Y-104342865D01*
X122045157Y-104212017D01*
X144648090Y-104212017D01*
X144689078Y-104484133D01*
X144782364Y-104743023D01*
X144844344Y-104858980D01*
X145084435Y-104925960D01*
X145870395Y-104140000D01*
X146229605Y-104140000D01*
X147015565Y-104925960D01*
X147255656Y-104858980D01*
X147372756Y-104609952D01*
X147439023Y-104342865D01*
X147451910Y-104067983D01*
X147410922Y-103795867D01*
X147317636Y-103536977D01*
X147255656Y-103421020D01*
X147015565Y-103354040D01*
X146229605Y-104140000D01*
X145870395Y-104140000D01*
X145084435Y-103354040D01*
X144844344Y-103421020D01*
X144727244Y-103670048D01*
X144660977Y-103937135D01*
X144648090Y-104212017D01*
X122045157Y-104212017D01*
X122051910Y-104067983D01*
X122010922Y-103795867D01*
X121917636Y-103536977D01*
X121855656Y-103421020D01*
X121615565Y-103354040D01*
X120829605Y-104140000D01*
X120470395Y-104140000D01*
X119684435Y-103354040D01*
X119444344Y-103421020D01*
X119327244Y-103670048D01*
X119260977Y-103937135D01*
X119248090Y-104212017D01*
X115252000Y-104212017D01*
X115252000Y-70358000D01*
X118956515Y-70358000D01*
X118956515Y-71882000D01*
X118974413Y-72063724D01*
X119027420Y-72238464D01*
X119113499Y-72399505D01*
X119229341Y-72540659D01*
X119317974Y-72613398D01*
X119153228Y-72859959D01*
X119025908Y-73167337D01*
X118961000Y-73493648D01*
X118961000Y-73826352D01*
X119025908Y-74152663D01*
X119153228Y-74460041D01*
X119338068Y-74736675D01*
X119531393Y-74930000D01*
X119338068Y-75123325D01*
X119153228Y-75399959D01*
X119025908Y-75707337D01*
X118961000Y-76033648D01*
X118961000Y-76366352D01*
X119025908Y-76692663D01*
X119153228Y-77000041D01*
X119338068Y-77276675D01*
X119531393Y-77470000D01*
X119338068Y-77663325D01*
X119153228Y-77939959D01*
X119025908Y-78247337D01*
X118961000Y-78573648D01*
X118961000Y-78906352D01*
X119025908Y-79232663D01*
X119153228Y-79540041D01*
X119338068Y-79816675D01*
X119531393Y-80010000D01*
X119338068Y-80203325D01*
X119153228Y-80479959D01*
X119025908Y-80787337D01*
X118961000Y-81113648D01*
X118961000Y-81446352D01*
X119025908Y-81772663D01*
X119153228Y-82080041D01*
X119338068Y-82356675D01*
X119531393Y-82550000D01*
X119338068Y-82743325D01*
X119153228Y-83019959D01*
X119025908Y-83327337D01*
X118961000Y-83653648D01*
X118961000Y-83986352D01*
X119025908Y-84312663D01*
X119153228Y-84620041D01*
X119338068Y-84896675D01*
X119531393Y-85090000D01*
X119338068Y-85283325D01*
X119153228Y-85559959D01*
X119025908Y-85867337D01*
X118961000Y-86193648D01*
X118961000Y-86526352D01*
X119025908Y-86852663D01*
X119153228Y-87160041D01*
X119338068Y-87436675D01*
X119531393Y-87630000D01*
X119338068Y-87823325D01*
X119153228Y-88099959D01*
X119025908Y-88407337D01*
X118961000Y-88733648D01*
X118961000Y-89066352D01*
X119025908Y-89392663D01*
X119153228Y-89700041D01*
X119338068Y-89976675D01*
X119531393Y-90170000D01*
X119338068Y-90363325D01*
X119153228Y-90639959D01*
X119025908Y-90947337D01*
X118961000Y-91273648D01*
X118961000Y-91606352D01*
X119025908Y-91932663D01*
X119153228Y-92240041D01*
X119338068Y-92516675D01*
X119531393Y-92710000D01*
X119338068Y-92903325D01*
X119153228Y-93179959D01*
X119025908Y-93487337D01*
X118961000Y-93813648D01*
X118961000Y-94146352D01*
X119025908Y-94472663D01*
X119153228Y-94780041D01*
X119338068Y-95056675D01*
X119531393Y-95250000D01*
X119338068Y-95443325D01*
X119153228Y-95719959D01*
X119025908Y-96027337D01*
X118961000Y-96353648D01*
X118961000Y-96686352D01*
X119025908Y-97012663D01*
X119153228Y-97320041D01*
X119338068Y-97596675D01*
X119531393Y-97790000D01*
X119338068Y-97983325D01*
X119153228Y-98259959D01*
X119025908Y-98567337D01*
X118961000Y-98893648D01*
X118961000Y-99226352D01*
X119025908Y-99552663D01*
X119153228Y-99860041D01*
X119338068Y-100136675D01*
X119531393Y-100330000D01*
X119338068Y-100523325D01*
X119153228Y-100799959D01*
X119025908Y-101107337D01*
X118961000Y-101433648D01*
X118961000Y-101766352D01*
X119025908Y-102092663D01*
X119153228Y-102400041D01*
X119338068Y-102676675D01*
X119573325Y-102911932D01*
X119849959Y-103096772D01*
X119882003Y-103110045D01*
X119864040Y-103174435D01*
X120650000Y-103960395D01*
X121435960Y-103174435D01*
X121417997Y-103110045D01*
X121450041Y-103096772D01*
X121726675Y-102911932D01*
X121961932Y-102676675D01*
X122146772Y-102400041D01*
X122274092Y-102092663D01*
X122339000Y-101766352D01*
X122339000Y-101433648D01*
X122274092Y-101107337D01*
X122146772Y-100799959D01*
X121961932Y-100523325D01*
X121768607Y-100330000D01*
X121961932Y-100136675D01*
X122146772Y-99860041D01*
X122274092Y-99552663D01*
X122339000Y-99226352D01*
X122339000Y-98893648D01*
X122274092Y-98567337D01*
X122146772Y-98259959D01*
X121961932Y-97983325D01*
X121768607Y-97790000D01*
X121961932Y-97596675D01*
X122146772Y-97320041D01*
X122274092Y-97012663D01*
X122339000Y-96686352D01*
X122339000Y-96353648D01*
X122274092Y-96027337D01*
X122146772Y-95719959D01*
X121961932Y-95443325D01*
X121768607Y-95250000D01*
X121961932Y-95056675D01*
X122146772Y-94780041D01*
X122274092Y-94472663D01*
X122339000Y-94146352D01*
X122339000Y-93813648D01*
X122274092Y-93487337D01*
X122146772Y-93179959D01*
X121961932Y-92903325D01*
X121768607Y-92710000D01*
X121961932Y-92516675D01*
X122146772Y-92240041D01*
X122274092Y-91932663D01*
X122339000Y-91606352D01*
X122339000Y-91273648D01*
X122274092Y-90947337D01*
X122146772Y-90639959D01*
X121961932Y-90363325D01*
X121768607Y-90170000D01*
X121961932Y-89976675D01*
X122146772Y-89700041D01*
X122274092Y-89392663D01*
X122339000Y-89066352D01*
X122339000Y-88733648D01*
X122274092Y-88407337D01*
X122146772Y-88099959D01*
X121961932Y-87823325D01*
X121768607Y-87630000D01*
X121961932Y-87436675D01*
X122146772Y-87160041D01*
X122274092Y-86852663D01*
X122339000Y-86526352D01*
X122339000Y-86193648D01*
X122274092Y-85867337D01*
X122146772Y-85559959D01*
X121961932Y-85283325D01*
X121768607Y-85090000D01*
X121961932Y-84896675D01*
X122146772Y-84620041D01*
X122274092Y-84312663D01*
X122339000Y-83986352D01*
X122339000Y-83653648D01*
X122274092Y-83327337D01*
X122146772Y-83019959D01*
X121961932Y-82743325D01*
X121768607Y-82550000D01*
X121961932Y-82356675D01*
X122146772Y-82080041D01*
X122274092Y-81772663D01*
X122339000Y-81446352D01*
X122339000Y-81113648D01*
X122274092Y-80787337D01*
X122146772Y-80479959D01*
X121961932Y-80203325D01*
X121768607Y-80010000D01*
X121961932Y-79816675D01*
X122146772Y-79540041D01*
X122274092Y-79232663D01*
X122339000Y-78906352D01*
X122339000Y-78573648D01*
X122274092Y-78247337D01*
X122146772Y-77939959D01*
X121961932Y-77663325D01*
X121768607Y-77470000D01*
X121961932Y-77276675D01*
X122146772Y-77000041D01*
X122274092Y-76692663D01*
X122339000Y-76366352D01*
X122339000Y-76033648D01*
X122274092Y-75707337D01*
X122146772Y-75399959D01*
X121961932Y-75123325D01*
X121768607Y-74930000D01*
X121961932Y-74736675D01*
X122146772Y-74460041D01*
X122274092Y-74152663D01*
X122339000Y-73826352D01*
X122339000Y-73493648D01*
X122274092Y-73167337D01*
X122146772Y-72859959D01*
X121982026Y-72613398D01*
X122070659Y-72540659D01*
X122186501Y-72399505D01*
X122272580Y-72238464D01*
X122325587Y-72063724D01*
X122343485Y-71882000D01*
X122343485Y-70358000D01*
X122325587Y-70176276D01*
X122272580Y-70001536D01*
X122186501Y-69840495D01*
X122070659Y-69699341D01*
X121929505Y-69583499D01*
X121768464Y-69497420D01*
X121593724Y-69444413D01*
X121412000Y-69426515D01*
X119888000Y-69426515D01*
X119706276Y-69444413D01*
X119531536Y-69497420D01*
X119370495Y-69583499D01*
X119229341Y-69699341D01*
X119113499Y-69840495D01*
X119027420Y-70001536D01*
X118974413Y-70176276D01*
X118956515Y-70358000D01*
X115252000Y-70358000D01*
X115252000Y-64770000D01*
X136996097Y-64770000D01*
X137003001Y-64840098D01*
X137003000Y-88829912D01*
X136996097Y-88900000D01*
X137003000Y-88970088D01*
X137003000Y-88970097D01*
X137023648Y-89179740D01*
X137105245Y-89448730D01*
X137105246Y-89448731D01*
X137237753Y-89696634D01*
X137371392Y-89859474D01*
X137371395Y-89859477D01*
X137416077Y-89913922D01*
X137470523Y-89958605D01*
X144401407Y-96889489D01*
X144425908Y-97012663D01*
X144553228Y-97320041D01*
X144738068Y-97596675D01*
X144931393Y-97790000D01*
X144738068Y-97983325D01*
X144553228Y-98259959D01*
X144425908Y-98567337D01*
X144361000Y-98893648D01*
X144361000Y-99226352D01*
X144425908Y-99552663D01*
X144553228Y-99860041D01*
X144738068Y-100136675D01*
X144931393Y-100330000D01*
X144738068Y-100523325D01*
X144553228Y-100799959D01*
X144425908Y-101107337D01*
X144361000Y-101433648D01*
X144361000Y-101766352D01*
X144425908Y-102092663D01*
X144553228Y-102400041D01*
X144738068Y-102676675D01*
X144973325Y-102911932D01*
X145249959Y-103096772D01*
X145282003Y-103110045D01*
X145264040Y-103174435D01*
X146050000Y-103960395D01*
X146835960Y-103174435D01*
X146817997Y-103110045D01*
X146850041Y-103096772D01*
X147126675Y-102911932D01*
X147361932Y-102676675D01*
X147546772Y-102400041D01*
X147674092Y-102092663D01*
X147739000Y-101766352D01*
X147739000Y-101433648D01*
X147674092Y-101107337D01*
X147546772Y-100799959D01*
X147361932Y-100523325D01*
X147168607Y-100330000D01*
X147361932Y-100136675D01*
X147546772Y-99860041D01*
X147674092Y-99552663D01*
X147739000Y-99226352D01*
X147739000Y-98893648D01*
X147674092Y-98567337D01*
X147546772Y-98259959D01*
X147361932Y-97983325D01*
X147168607Y-97790000D01*
X147361932Y-97596675D01*
X147546772Y-97320041D01*
X147674092Y-97012663D01*
X147739000Y-96686352D01*
X147739000Y-96353648D01*
X147674092Y-96027337D01*
X147546772Y-95719959D01*
X147361932Y-95443325D01*
X147168607Y-95250000D01*
X147361932Y-95056675D01*
X147546772Y-94780041D01*
X147674092Y-94472663D01*
X147739000Y-94146352D01*
X147739000Y-93813648D01*
X147674092Y-93487337D01*
X147546772Y-93179959D01*
X147361932Y-92903325D01*
X147168607Y-92710000D01*
X147361932Y-92516675D01*
X147546772Y-92240041D01*
X147674092Y-91932663D01*
X147739000Y-91606352D01*
X147739000Y-91273648D01*
X147674092Y-90947337D01*
X147546772Y-90639959D01*
X147361932Y-90363325D01*
X147168607Y-90170000D01*
X147361932Y-89976675D01*
X147546772Y-89700041D01*
X147674092Y-89392663D01*
X147739000Y-89066352D01*
X147739000Y-88733648D01*
X147674092Y-88407337D01*
X147546772Y-88099959D01*
X147361932Y-87823325D01*
X147168607Y-87630000D01*
X147361932Y-87436675D01*
X147546772Y-87160041D01*
X147674092Y-86852663D01*
X147739000Y-86526352D01*
X147739000Y-86193648D01*
X147674092Y-85867337D01*
X147546772Y-85559959D01*
X147361932Y-85283325D01*
X147168607Y-85090000D01*
X147361932Y-84896675D01*
X147546772Y-84620041D01*
X147674092Y-84312663D01*
X147739000Y-83986352D01*
X147739000Y-83653648D01*
X147674092Y-83327337D01*
X147546772Y-83019959D01*
X147361932Y-82743325D01*
X147168607Y-82550000D01*
X147361932Y-82356675D01*
X147546772Y-82080041D01*
X147674092Y-81772663D01*
X147739000Y-81446352D01*
X147739000Y-81113648D01*
X147674092Y-80787337D01*
X147546772Y-80479959D01*
X147361932Y-80203325D01*
X147168607Y-80010000D01*
X147361932Y-79816675D01*
X147546772Y-79540041D01*
X147674092Y-79232663D01*
X147739000Y-78906352D01*
X147739000Y-78573648D01*
X147674092Y-78247337D01*
X147546772Y-77939959D01*
X147361932Y-77663325D01*
X147168607Y-77470000D01*
X147361932Y-77276675D01*
X147546772Y-77000041D01*
X147674092Y-76692663D01*
X147739000Y-76366352D01*
X147739000Y-76033648D01*
X147674092Y-75707337D01*
X147546772Y-75399959D01*
X147361932Y-75123325D01*
X147168607Y-74930000D01*
X147361932Y-74736675D01*
X147546772Y-74460041D01*
X147674092Y-74152663D01*
X147739000Y-73826352D01*
X147739000Y-73493648D01*
X147674092Y-73167337D01*
X147546772Y-72859959D01*
X147361932Y-72583325D01*
X147325607Y-72547000D01*
X153078918Y-72547000D01*
X155151390Y-74619472D01*
X155196077Y-74673923D01*
X155413366Y-74852248D01*
X155661269Y-74984755D01*
X155930259Y-75066352D01*
X156139902Y-75087000D01*
X156139911Y-75087000D01*
X156209999Y-75093903D01*
X156280087Y-75087000D01*
X162489912Y-75087000D01*
X162560000Y-75093903D01*
X162630088Y-75087000D01*
X162630098Y-75087000D01*
X162839741Y-75066352D01*
X163108731Y-74984755D01*
X163356634Y-74852248D01*
X163573923Y-74673923D01*
X163618610Y-74619472D01*
X164789477Y-73448605D01*
X164843922Y-73403923D01*
X165022248Y-73186634D01*
X165154755Y-72938731D01*
X165236352Y-72669741D01*
X165257000Y-72460098D01*
X165257000Y-72460089D01*
X165263903Y-72390001D01*
X165257000Y-72319913D01*
X165257000Y-71243497D01*
X165528275Y-71424757D01*
X165851668Y-71558711D01*
X166194981Y-71627000D01*
X166545019Y-71627000D01*
X166888332Y-71558711D01*
X167211725Y-71424757D01*
X167502771Y-71230286D01*
X167640000Y-71093057D01*
X167777229Y-71230286D01*
X168068275Y-71424757D01*
X168391668Y-71558711D01*
X168734981Y-71627000D01*
X169085019Y-71627000D01*
X169428332Y-71558711D01*
X169751725Y-71424757D01*
X170042771Y-71230286D01*
X170290286Y-70982771D01*
X170484757Y-70691725D01*
X170618711Y-70368332D01*
X170687000Y-70025019D01*
X170687000Y-69674981D01*
X170618711Y-69331668D01*
X170484757Y-69008275D01*
X170290286Y-68717229D01*
X170108387Y-68535330D01*
X170123185Y-68523185D01*
X170202537Y-68426494D01*
X170261502Y-68316180D01*
X170297812Y-68196482D01*
X170310072Y-68072000D01*
X170307000Y-67595750D01*
X170148250Y-67437000D01*
X169037000Y-67437000D01*
X169037000Y-67457000D01*
X168783000Y-67457000D01*
X168783000Y-67437000D01*
X168763000Y-67437000D01*
X168763000Y-67183000D01*
X168783000Y-67183000D01*
X168783000Y-66071750D01*
X169037000Y-66071750D01*
X169037000Y-67183000D01*
X170148250Y-67183000D01*
X170307000Y-67024250D01*
X170310072Y-66548000D01*
X170297812Y-66423518D01*
X170261502Y-66303820D01*
X170202537Y-66193506D01*
X170123185Y-66096815D01*
X170026494Y-66017463D01*
X169916180Y-65958498D01*
X169796482Y-65922188D01*
X169672000Y-65909928D01*
X169195750Y-65913000D01*
X169037000Y-66071750D01*
X168783000Y-66071750D01*
X168624250Y-65913000D01*
X168148000Y-65909928D01*
X168023518Y-65922188D01*
X167903820Y-65958498D01*
X167797000Y-66015595D01*
X167797000Y-63570087D01*
X167803903Y-63499999D01*
X167797000Y-63429911D01*
X167797000Y-63429902D01*
X167776352Y-63220259D01*
X167694755Y-62951269D01*
X167562248Y-62703366D01*
X167383922Y-62486077D01*
X167329477Y-62441395D01*
X164888610Y-60000528D01*
X164843923Y-59946077D01*
X164626634Y-59767752D01*
X164378731Y-59635245D01*
X164109741Y-59553648D01*
X163900098Y-59533000D01*
X163900088Y-59533000D01*
X163830000Y-59526097D01*
X163759912Y-59533000D01*
X142310090Y-59533000D01*
X142240000Y-59526097D01*
X142169910Y-59533000D01*
X142169902Y-59533000D01*
X141984474Y-59551263D01*
X141960258Y-59553648D01*
X141878661Y-59578400D01*
X141691269Y-59635245D01*
X141575872Y-59696926D01*
X141443365Y-59767752D01*
X141280525Y-59901392D01*
X141280522Y-59901395D01*
X141226077Y-59946077D01*
X141181395Y-60000522D01*
X137470523Y-63711395D01*
X137416078Y-63756077D01*
X137371396Y-63810522D01*
X137371392Y-63810526D01*
X137237753Y-63973366D01*
X137105246Y-64221269D01*
X137023649Y-64490259D01*
X136996097Y-64770000D01*
X115252000Y-64770000D01*
X115252000Y-59372000D01*
X175578000Y-59372000D01*
X175578001Y-129858000D01*
G37*
%TD.AperFunction*%
%TD*%
M02*
